<svg width="367" height="227" viewBox="0 0 367 227" fill="none" xmlns="http://www.w3.org/2000/svg">
<g clip-path="url(#clip0_2_14)">
<path d="M230.986 67.0184C230.986 66.2486 231.82 65.7674 232.486 66.1523L342.467 129.65C345.8 131.574 345.8 136.385 342.467 138.31L238.486 198.343C235.153 200.267 230.986 197.862 230.986 194.013L230.986 67.0184Z" fill="url(#paint0_linear_2_14)"/>
<path d="M199.693 20.0787C199.693 19.3089 200.527 18.8278 201.193 19.2127L311.174 82.7099C314.507 84.6344 314.507 89.4457 311.174 91.3702L207.193 151.403C203.86 153.328 199.693 150.922 199.693 147.073L199.693 20.0787Z" fill="url(#paint1_linear_2_14)"/>
<path d="M132.331 200.687L98.5811 151.937H96.5811H61.3311V200.687H20.8311V25.6865H96.5811C112.081 25.6865 125.498 28.2699 136.831 33.4365C148.331 38.6032 157.164 45.9365 163.331 55.4365C169.498 64.9365 172.581 76.1865 172.581 89.1866C172.581 102.187 169.414 113.437 163.081 122.937C156.914 132.27 148.081 139.437 136.581 144.437L175.831 200.687H132.331ZM131.581 89.1866C131.581 79.3532 128.414 71.8532 122.081 66.6866C115.748 61.3532 106.498 58.6865 94.3311 58.6865H61.3311V119.687H94.3311C106.498 119.687 115.748 117.02 122.081 111.687C128.414 106.353 131.581 98.8532 131.581 89.1866Z" fill="url(#paint2_linear_2_14)"/>
</g>
<defs>
<linearGradient id="paint0_linear_2_14" x1="230.986" y1="65.2863" x2="290.477" y2="168.326" gradientUnits="userSpaceOnUse">
<stop stop-color="#FF0000"/>
<stop offset="1" stop-color="#0029FF"/>
</linearGradient>
<linearGradient id="paint1_linear_2_14" x1="199.693" y1="18.3467" x2="259.184" y2="121.387" gradientUnits="userSpaceOnUse">
<stop stop-color="#FF0000"/>
<stop offset="1" stop-color="#0029FF"/>
</linearGradient>
<linearGradient id="paint2_linear_2_14" x1="92" y1="10.6866" x2="92" y2="210.687" gradientUnits="userSpaceOnUse">
<stop stop-color="#FF0909"/>
<stop offset="1" stop-color="#0029FF"/>
</linearGradient>
<clipPath id="clip0_2_14">
<rect width="367" height="227" fill="white"/>
</clipPath>
</defs>
</svg>
