<svg width="783" height="806" viewBox="0 0 783 806" fill="none" xmlns="http://www.w3.org/2000/svg">
<path d="M60.168 579.276C60.1677 291.836 347.013 5.00015 391.789 5C436.564 4.99985 715.697 275.562 715.697 579.276C715.697 882.989 60.1683 866.715 60.168 579.276Z" fill="white" stroke="#212121" stroke-width="10"/>
<mask id="mask0_19_95" style="mask-type:alpha" maskUnits="userSpaceOnUse" x="69" y="17" width="638" height="775">
<path d="M70.1982 575.763C70.198 296.778 348.263 18.3783 391.667 18.3782C435.072 18.378 705.66 280.982 705.66 575.763C705.66 870.544 70.1985 854.749 70.1982 575.763Z" fill="white" stroke="black" stroke-width="1.194"/>
</mask>
<g mask="url(#mask0_19_95)">
<path d="M356.159 127.076C210.376 77.0786 40.0999 85.3457 40.0999 85.3457L-20.1018 851.168L732.419 834.41L672.218 48.479C672.218 48.479 501.941 177.073 356.159 127.076Z" fill="#07C2EB"/>
<path d="M372.881 183.933C227.099 133.936 56.8226 142.203 56.8226 142.203L-3.37912 908.025L749.142 891.268L688.94 105.336C688.94 105.336 518.664 233.93 372.881 183.933Z" fill="#0799EB"/>
<path d="M137.627 668.155L151.272 600.328H164.316L164.717 605.746H164.918C167.125 603.739 169.5 602.134 172.042 600.93C174.651 599.726 177.159 599.124 179.567 599.124C183.982 599.124 187.427 600.729 189.902 603.94C192.377 607.084 193.614 611.632 193.614 617.586C193.614 622.335 192.878 626.783 191.407 630.93C189.935 635.077 187.928 638.723 185.387 641.867C182.912 644.944 180.069 647.352 176.858 649.091C173.714 650.83 170.403 651.7 166.925 651.7C165.052 651.7 163.246 651.232 161.507 650.295C159.834 649.292 158.497 647.954 157.493 646.282H157.292L156.088 655.713L153.68 668.155H137.627ZM165.721 638.656C167.661 638.656 169.467 637.853 171.139 636.248C172.878 634.643 174.283 632.402 175.353 629.526C176.423 626.649 176.958 623.338 176.958 619.592C176.958 616.984 176.524 615.111 175.654 613.973C174.851 612.769 173.748 612.167 172.343 612.167C171.072 612.167 169.634 612.569 168.028 613.371C166.49 614.107 165.119 615.579 163.915 617.786L160.503 634.843C161.038 636.114 161.774 637.084 162.711 637.753C163.714 638.355 164.717 638.656 165.721 638.656Z" fill="#212121"/>
<path d="M197.384 650.496L207.417 600.328H220.461L220.06 610.161H220.461C222.401 606.95 224.675 604.308 227.284 602.234C229.96 600.16 232.702 599.124 235.512 599.124C236.916 599.124 238.053 599.224 238.923 599.425C239.793 599.558 240.461 599.793 240.93 600.127L235.712 613.973C235.043 613.572 234.207 613.338 233.204 613.271C232.2 613.204 231.297 613.171 230.495 613.171C228.421 613.171 226.448 613.873 224.575 615.278C222.702 616.683 220.796 619.057 218.856 622.402L213.438 650.496H197.384Z" fill="#212121"/>
<path d="M259.254 651.7C255.173 651.7 251.561 650.83 248.417 649.091C245.273 647.352 242.798 644.877 240.992 641.666C239.253 638.389 238.384 634.509 238.384 630.027C238.384 625.412 239.22 621.231 240.892 617.485C242.564 613.672 244.772 610.395 247.514 607.652C250.257 604.91 253.3 602.803 256.645 601.331C259.989 599.86 263.334 599.124 266.678 599.124C270.759 599.124 274.003 599.993 276.411 601.732C278.886 603.472 280.659 605.779 281.729 608.656C282.799 611.532 283.334 614.709 283.334 618.188C283.334 620.596 283 622.97 282.331 625.311C281.662 627.586 281.127 629.091 280.726 629.827H253.434C253.434 633.305 254.437 635.813 256.444 637.352C258.518 638.89 260.993 639.659 263.869 639.659C265.274 639.659 266.745 639.325 268.284 638.656C269.889 637.987 271.227 637.251 272.297 636.449L277.916 646.482C275.909 647.887 273.334 649.125 270.19 650.195C267.046 651.198 263.401 651.7 259.254 651.7ZM254.638 620.194H269.889C270.023 619.86 270.123 619.425 270.19 618.89C270.257 618.355 270.291 617.853 270.291 617.385C270.291 615.646 269.889 614.208 269.087 613.07C268.284 611.933 266.812 611.365 264.672 611.365C262.799 611.365 260.926 612.067 259.053 613.472C257.247 614.81 255.775 617.05 254.638 620.194Z" fill="#212121"/>
<path d="M303.397 651.7C301.457 651.7 299.35 651.332 297.076 650.596C294.801 649.86 292.594 648.79 290.453 647.385C288.38 645.914 286.607 644.074 285.136 641.867L294.367 634.241C296.173 636.315 297.912 637.82 299.584 638.756C301.323 639.626 302.929 640.061 304.4 640.061C305.939 640.061 307.243 639.76 308.313 639.158C309.45 638.489 310.019 637.653 310.019 636.649C310.019 635.312 309.25 634.241 307.711 633.439C306.24 632.636 304.199 631.499 301.591 630.027C299.116 628.623 296.875 626.75 294.868 624.408C292.928 622.067 291.958 619.258 291.958 615.98C291.958 612.769 292.861 609.893 294.668 607.351C296.474 604.809 298.915 602.803 301.992 601.331C305.069 599.86 308.48 599.124 312.226 599.124C315.838 599.124 319.049 599.926 321.859 601.532C324.735 603.07 327.21 604.943 329.284 607.151L320.655 615.378C319.451 614.174 318.146 613.137 316.741 612.268C315.337 611.398 313.832 610.963 312.226 610.963C310.621 610.963 309.35 611.331 308.414 612.067C307.477 612.736 307.009 613.572 307.009 614.575C307.009 615.98 307.878 617.084 309.618 617.887C311.357 618.689 313.163 619.659 315.036 620.796C316.641 621.666 318.213 622.736 319.752 624.007C321.29 625.211 322.561 626.716 323.564 628.522C324.568 630.261 325.069 632.368 325.069 634.843C325.069 638.188 324.133 641.131 322.26 643.673C320.454 646.215 317.912 648.188 314.634 649.593C311.357 650.997 307.611 651.7 303.397 651.7Z" fill="#212121"/>
<path d="M346.706 651.7C344.766 651.7 342.659 651.332 340.385 650.596C338.11 649.86 335.903 648.79 333.763 647.385C331.689 645.914 329.916 644.074 328.445 641.867L337.676 634.241C339.482 636.315 341.221 637.82 342.893 638.756C344.632 639.626 346.238 640.061 347.709 640.061C349.248 640.061 350.552 639.76 351.622 639.158C352.76 638.489 353.328 637.653 353.328 636.649C353.328 635.312 352.559 634.241 351.02 633.439C349.549 632.636 347.509 631.499 344.9 630.027C342.425 628.623 340.184 626.75 338.177 624.408C336.238 622.067 335.268 619.258 335.268 615.98C335.268 612.769 336.171 609.893 337.977 607.351C339.783 604.809 342.224 602.803 345.301 601.331C348.378 599.86 351.79 599.124 355.536 599.124C359.148 599.124 362.358 599.926 365.168 601.532C368.044 603.07 370.519 604.943 372.593 607.151L363.964 615.378C362.76 614.174 361.455 613.137 360.051 612.268C358.646 611.398 357.141 610.963 355.536 610.963C353.93 610.963 352.659 611.331 351.723 612.067C350.786 612.736 350.318 613.572 350.318 614.575C350.318 615.98 351.188 617.084 352.927 617.887C354.666 618.689 356.472 619.659 358.345 620.796C359.95 621.666 361.522 622.736 363.061 624.007C364.599 625.211 365.87 626.716 366.873 628.522C367.877 630.261 368.379 632.368 368.379 634.843C368.379 638.188 367.442 641.131 365.569 643.673C363.763 646.215 361.221 648.188 357.944 649.593C354.666 650.997 350.92 651.7 346.706 651.7Z" fill="#212121"/>
<path d="M387.808 651.7C383.727 651.7 380.717 650.596 378.777 648.389C376.905 646.181 375.968 642.937 375.968 638.656C375.968 636.382 376.236 633.974 376.771 631.432L382.992 600.328H399.045L393.226 629.425C393.025 630.295 392.824 631.097 392.624 631.833C392.49 632.569 392.423 633.238 392.423 633.84C392.423 636.649 393.828 638.054 396.637 638.054C397.975 638.054 399.279 637.586 400.55 636.649C401.821 635.713 403.259 634.308 404.865 632.435L411.086 600.328H427.139L417.307 650.496H404.263V644.074H403.861C401.788 646.081 399.346 647.854 396.537 649.392C393.728 650.931 390.818 651.7 387.808 651.7Z" fill="#212121"/>
<path d="M428.921 650.496L438.955 600.328H451.999L451.597 610.161H451.999C453.938 606.95 456.213 604.308 458.821 602.234C461.497 600.16 464.24 599.124 467.049 599.124C468.454 599.124 469.591 599.224 470.46 599.425C471.33 599.558 471.999 599.793 472.467 600.127L467.25 613.973C466.581 613.572 465.745 613.338 464.741 613.271C463.738 613.204 462.835 613.171 462.032 613.171C459.959 613.171 457.985 613.873 456.112 615.278C454.239 616.683 452.333 619.057 450.393 622.402L444.975 650.496H428.921Z" fill="#212121"/>
<path d="M490.791 651.7C486.711 651.7 483.099 650.83 479.955 649.091C476.811 647.352 474.336 644.877 472.53 641.666C470.791 638.389 469.921 634.509 469.921 630.027C469.921 625.412 470.757 621.231 472.429 617.485C474.102 613.672 476.309 610.395 479.052 607.652C481.794 604.91 484.838 602.803 488.182 601.331C491.527 599.86 494.871 599.124 498.216 599.124C502.296 599.124 505.54 599.993 507.948 601.732C510.423 603.472 512.196 605.779 513.266 608.656C514.337 611.532 514.872 614.709 514.872 618.188C514.872 620.596 514.537 622.97 513.868 625.311C513.199 627.586 512.664 629.091 512.263 629.827H484.971C484.971 633.305 485.975 635.813 487.982 637.352C490.055 638.89 492.53 639.659 495.406 639.659C496.811 639.659 498.283 639.325 499.821 638.656C501.427 637.987 502.764 637.251 503.835 636.449L509.454 646.482C507.447 647.887 504.871 649.125 501.728 650.195C498.584 651.198 494.938 651.7 490.791 651.7ZM486.176 620.194H501.427C501.56 619.86 501.661 619.425 501.728 618.89C501.794 618.355 501.828 617.853 501.828 617.385C501.828 615.646 501.427 614.208 500.624 613.07C499.821 611.933 498.35 611.365 496.209 611.365C494.336 611.365 492.463 612.067 490.59 613.472C488.784 614.81 487.313 617.05 486.176 620.194Z" fill="#212121"/>
<path d="M246.725 728.624C242.98 728.624 239.568 727.822 236.491 726.216C233.481 724.544 231.073 722.169 229.267 719.092C227.528 715.948 226.658 712.169 226.658 707.754C226.658 703.54 227.394 699.527 228.866 695.714C230.404 691.901 232.511 688.523 235.187 685.58C237.929 682.637 241.14 680.329 244.819 678.657C248.498 676.918 252.478 676.048 256.759 676.048C259.97 676.048 262.746 676.717 265.087 678.055C267.428 679.326 269.201 680.73 270.405 682.269L261.575 691.701C260.706 690.764 259.803 690.062 258.866 689.593C257.997 689.125 256.96 688.891 255.756 688.891C253.348 688.891 251.174 689.727 249.234 691.399C247.361 693.072 245.856 695.346 244.719 698.222C243.648 701.032 243.113 704.142 243.113 707.554C243.113 710.029 243.715 712.035 244.919 713.574C246.123 715.045 247.929 715.781 250.338 715.781C251.876 715.781 253.18 715.48 254.251 714.878C255.321 714.276 256.291 713.641 257.16 712.972L263.783 722.805C261.91 724.209 259.602 725.547 256.859 726.818C254.117 728.022 250.739 728.624 246.725 728.624Z" fill="#212121"/>
<path d="M283.678 728.624C279.598 728.624 276.655 727.654 274.849 725.714C273.109 723.708 272.24 720.999 272.24 717.587C272.24 716.584 272.307 715.547 272.44 714.477C272.574 713.407 272.775 712.169 273.042 710.764L283.678 657.586H299.732L288.896 711.366C288.829 711.835 288.762 712.203 288.695 712.47C288.695 712.738 288.695 713.005 288.695 713.273C288.695 714.209 288.896 714.878 289.297 715.279C289.765 715.614 290.233 715.781 290.702 715.781C291.036 715.781 291.304 715.781 291.504 715.781C291.772 715.714 292.106 715.647 292.508 715.581L291.906 727.42C291.036 727.688 289.899 727.955 288.494 728.223C287.09 728.49 285.484 728.624 283.678 728.624Z" fill="#212121"/>
<path d="M321.016 728.624C316.936 728.624 313.324 727.755 310.18 726.015C307.036 724.276 304.561 721.801 302.755 718.591C301.016 715.313 300.147 711.433 300.147 706.952C300.147 702.336 300.983 698.155 302.655 694.41C304.327 690.597 306.535 687.319 309.277 684.577C312.02 681.834 315.063 679.727 318.408 678.255C321.752 676.784 325.097 676.048 328.441 676.048C332.522 676.048 335.766 676.918 338.174 678.657C340.649 680.396 342.422 682.704 343.492 685.58C344.562 688.456 345.097 691.634 345.097 695.112C345.097 697.52 344.763 699.895 344.094 702.236C343.425 704.51 342.89 706.015 342.488 706.751H315.197C315.197 710.229 316.2 712.738 318.207 714.276C320.281 715.815 322.756 716.584 325.632 716.584C327.037 716.584 328.508 716.249 330.047 715.581C331.652 714.912 332.99 714.176 334.06 713.373L339.679 723.407C337.672 724.811 335.097 726.049 331.953 727.119C328.809 728.123 325.164 728.624 321.016 728.624ZM316.401 697.119H331.652C331.786 696.784 331.886 696.349 331.953 695.814C332.02 695.279 332.053 694.777 332.053 694.309C332.053 692.57 331.652 691.132 330.849 689.995C330.047 688.858 328.575 688.289 326.435 688.289C324.562 688.289 322.689 688.991 320.816 690.396C319.01 691.734 317.538 693.975 316.401 697.119Z" fill="#212121"/>
<path d="M364.758 728.624C360.344 728.624 356.899 727.019 354.424 723.808C351.949 720.597 350.711 716.049 350.711 710.162C350.711 705.413 351.447 700.965 352.919 696.818C354.39 692.67 356.364 689.058 358.838 685.981C361.38 682.837 364.223 680.396 367.367 678.657C370.578 676.918 373.922 676.048 377.401 676.048C379.541 676.048 381.581 676.617 383.521 677.754C385.528 678.824 386.966 680.329 387.836 682.269H388.036L390.244 677.252H403.087L393.053 727.42H380.009V721.199H379.809C377.601 723.474 375.126 725.28 372.384 726.617C369.708 727.955 367.166 728.624 364.758 728.624ZM371.983 715.581C373.32 715.581 374.792 715.146 376.397 714.276C378.07 713.407 379.541 711.634 380.812 708.958L384.023 692.905C383.421 691.567 382.585 690.597 381.514 689.995C380.511 689.393 379.541 689.092 378.605 689.092C376.665 689.092 374.825 689.894 373.086 691.5C371.414 693.105 370.043 695.346 368.972 698.222C367.902 701.099 367.367 704.41 367.367 708.156C367.367 710.764 367.768 712.671 368.571 713.875C369.441 715.012 370.578 715.581 371.983 715.581Z" fill="#212121"/>
<path d="M404.654 727.42L414.687 677.252H427.731V683.674H428.132C430.474 681.667 432.982 679.894 435.658 678.356C438.4 676.817 441.377 676.048 444.588 676.048C448.735 676.048 451.745 677.152 453.618 679.359C455.491 681.5 456.427 684.744 456.427 689.092C456.427 691.366 456.16 693.774 455.624 696.316L449.404 727.42H433.35L439.169 698.323C439.37 697.386 439.537 696.584 439.671 695.915C439.872 695.179 439.972 694.51 439.972 693.908C439.972 691.098 438.567 689.694 435.758 689.694C434.353 689.694 432.982 690.162 431.644 691.098C430.306 691.968 428.734 693.373 426.928 695.313L420.707 727.42H404.654Z" fill="#212121"/>
<path d="M460.995 727.42L471.028 677.252H487.082L477.049 727.42H460.995ZM481.263 670.831C479.189 670.831 477.249 670.229 475.443 669.025C473.704 667.754 472.834 665.881 472.834 663.406C472.834 660.998 473.771 658.891 475.644 657.085C477.517 655.278 479.791 654.375 482.467 654.375C484.607 654.375 486.547 655.011 488.286 656.282C490.025 657.553 490.895 659.392 490.895 661.8C490.895 664.409 489.958 666.583 488.086 668.322C486.279 669.994 484.005 670.831 481.263 670.831Z" fill="#212121"/>
<path d="M488.724 727.42L498.758 677.252H511.802V683.674H512.203C514.544 681.667 517.053 679.894 519.728 678.356C522.471 676.817 525.447 676.048 528.658 676.048C532.805 676.048 535.816 677.152 537.688 679.359C539.561 681.5 540.498 684.744 540.498 689.092C540.498 691.366 540.23 693.774 539.695 696.316L533.474 727.42H517.421L523.24 698.323C523.441 697.386 523.608 696.584 523.742 695.915C523.942 695.179 524.043 694.51 524.043 693.908C524.043 691.098 522.638 689.694 519.829 689.694C518.424 689.694 517.053 690.162 515.715 691.098C514.377 691.968 512.805 693.373 510.999 695.313L504.778 727.42H488.724Z" fill="#212121"/>
<path d="M562.323 747.086C559.514 747.086 556.403 746.517 552.992 745.38C549.648 744.243 546.47 742.471 543.46 740.063L550.283 729.427C552.223 730.832 554.23 732.002 556.303 732.939C558.377 733.942 560.517 734.444 562.725 734.444C565.467 734.444 567.775 733.775 569.648 732.437C571.588 731.166 572.959 729.293 573.762 726.818L576.37 718.591C572.022 723.139 567.139 725.413 561.721 725.413C557.507 725.413 553.995 723.975 551.186 721.099C548.444 718.223 547.072 713.841 547.072 707.955C547.072 703.473 547.775 699.326 549.179 695.513C550.584 691.634 552.49 688.256 554.898 685.379C557.373 682.436 560.149 680.162 563.226 678.556C566.37 676.884 569.681 676.048 573.16 676.048C575.3 676.048 577.307 676.617 579.18 677.754C581.12 678.824 582.524 680.329 583.394 682.269H583.595L585.802 677.252H598.846L589.213 725.413C587.742 732.905 584.665 738.39 579.982 741.869C575.367 745.347 569.481 747.086 562.323 747.086ZM568.143 712.37C569.548 712.37 571.053 712.002 572.658 711.266C574.263 710.53 575.701 709.025 576.972 706.751L579.581 692.905C578.979 691.567 578.176 690.597 577.173 689.995C576.237 689.393 575.3 689.092 574.364 689.092C571.487 689.092 568.979 690.664 566.838 693.808C564.765 696.885 563.728 700.931 563.728 705.948C563.728 708.156 564.129 709.794 564.932 710.865C565.802 711.868 566.872 712.37 568.143 712.37Z" fill="#212121"/>
</g>
<mask id="path-4-outside-1_19_95" maskUnits="userSpaceOnUse" x="97.9897" y="168.571" width="581" height="244" fill="black">
<rect fill="white" x="97.9897" y="168.571" width="581" height="244"/>
<path d="M225.788 246.308H261.307L251.373 295.975H217.962L196.59 401.93H128.562L149.633 295.975H127.057L136.99 246.308H159.566L160.469 242.395C164.482 221.927 173.613 205.672 187.861 193.632C202.108 181.592 220.871 175.571 244.149 175.571C261.206 175.571 275.153 178.281 285.989 183.699L260.103 230.957C255.287 228.348 250.169 227.044 244.751 227.044C239.333 227.044 235.119 228.549 232.109 231.559C229.299 234.569 227.192 239.385 225.788 246.007V246.308Z"/>
<path d="M462.314 237.278L429.505 401.93H365.39L368.701 385.374C361.677 391.997 353.951 396.913 345.523 400.124C337.095 403.334 328.566 404.94 319.938 404.94C302.278 404.94 288.131 400.124 277.495 390.491C266.86 380.859 261.542 367.013 261.542 348.952C261.542 342.129 262.244 335.206 263.649 328.183L281.709 237.278H349.737L333.182 320.055C332.379 324.872 331.978 328.283 331.978 330.29C331.978 341.929 337.496 347.748 348.533 347.748C364.186 347.748 374.119 337.313 378.333 316.443L394.287 237.278H462.314Z"/>
<path d="M503.927 178.582H571.954L527.405 401.93H459.377L503.927 178.582Z"/>
<path d="M602.107 178.582H670.135L625.586 401.93H557.558L602.107 178.582Z"/>
<path d="M205.721 246.308H241.239L231.306 295.975H197.894L176.523 401.93H108.495L129.565 295.975H106.99L116.923 246.308H139.499L140.402 242.395C144.415 221.927 153.546 205.672 167.793 193.632C182.041 181.592 200.804 175.571 224.082 175.571C241.139 175.571 255.086 178.281 265.922 183.699L240.035 230.957C235.219 228.348 230.102 227.044 224.684 227.044C219.266 227.044 215.052 228.549 212.042 231.559C209.232 234.569 207.125 239.385 205.721 246.007V246.308Z"/>
<path d="M442.247 237.278L409.437 401.93H345.323L348.634 385.374C341.61 391.997 333.884 396.913 325.456 400.124C317.028 403.334 308.499 404.94 299.87 404.94C282.211 404.94 268.064 400.124 257.428 390.491C246.792 380.859 241.475 367.013 241.475 348.952C241.475 342.129 242.177 335.206 243.582 328.183L261.642 237.278H329.67L313.115 320.055C312.312 324.872 311.911 328.283 311.911 330.29C311.911 341.929 317.429 347.748 328.466 347.748C344.119 347.748 354.052 337.313 358.266 316.443L374.219 237.278H442.247Z"/>
<path d="M483.859 178.582H551.887L507.338 401.93H439.31L483.859 178.582Z"/>
<path d="M582.04 178.582H650.068L605.518 401.93H537.491L582.04 178.582Z"/>
</mask>
<path d="M225.788 246.308H261.307L251.373 295.975H217.962L196.59 401.93H128.562L149.633 295.975H127.057L136.99 246.308H159.566L160.469 242.395C164.482 221.927 173.613 205.672 187.861 193.632C202.108 181.592 220.871 175.571 244.149 175.571C261.206 175.571 275.153 178.281 285.989 183.699L260.103 230.957C255.287 228.348 250.169 227.044 244.751 227.044C239.333 227.044 235.119 228.549 232.109 231.559C229.299 234.569 227.192 239.385 225.788 246.007V246.308Z" fill="#212121"/>
<path d="M462.314 237.278L429.505 401.93H365.39L368.701 385.374C361.677 391.997 353.951 396.913 345.523 400.124C337.095 403.334 328.566 404.94 319.938 404.94C302.278 404.94 288.131 400.124 277.495 390.491C266.86 380.859 261.542 367.013 261.542 348.952C261.542 342.129 262.244 335.206 263.649 328.183L281.709 237.278H349.737L333.182 320.055C332.379 324.872 331.978 328.283 331.978 330.29C331.978 341.929 337.496 347.748 348.533 347.748C364.186 347.748 374.119 337.313 378.333 316.443L394.287 237.278H462.314Z" fill="#212121"/>
<path d="M503.927 178.582H571.954L527.405 401.93H459.377L503.927 178.582Z" fill="#212121"/>
<path d="M602.107 178.582H670.135L625.586 401.93H557.558L602.107 178.582Z" fill="#212121"/>
<path d="M205.721 246.308H241.239L231.306 295.975H197.894L176.523 401.93H108.495L129.565 295.975H106.99L116.923 246.308H139.499L140.402 242.395C144.415 221.927 153.546 205.672 167.793 193.632C182.041 181.592 200.804 175.571 224.082 175.571C241.139 175.571 255.086 178.281 265.922 183.699L240.035 230.957C235.219 228.348 230.102 227.044 224.684 227.044C219.266 227.044 215.052 228.549 212.042 231.559C209.232 234.569 207.125 239.385 205.721 246.007V246.308Z" fill="white"/>
<path d="M442.247 237.278L409.437 401.93H345.323L348.634 385.374C341.61 391.997 333.884 396.913 325.456 400.124C317.028 403.334 308.499 404.94 299.87 404.94C282.211 404.94 268.064 400.124 257.428 390.491C246.792 380.859 241.475 367.013 241.475 348.952C241.475 342.129 242.177 335.206 243.582 328.183L261.642 237.278H329.67L313.115 320.055C312.312 324.872 311.911 328.283 311.911 330.29C311.911 341.929 317.429 347.748 328.466 347.748C344.119 347.748 354.052 337.313 358.266 316.443L374.219 237.278H442.247Z" fill="white"/>
<path d="M483.859 178.582H551.887L507.338 401.93H439.31L483.859 178.582Z" fill="white"/>
<path d="M582.04 178.582H650.068L605.518 401.93H537.491L582.04 178.582Z" fill="white"/>
<path d="M225.788 246.308H218.788V253.308H225.788V246.308ZM261.307 246.308L268.171 247.681L269.845 239.308H261.307V246.308ZM251.373 295.975V302.975H257.112L258.238 297.348L251.373 295.975ZM217.962 295.975V288.975H212.232L211.1 294.591L217.962 295.975ZM196.59 401.93V408.93H202.319L203.452 403.314L196.59 401.93ZM128.562 401.93L121.696 400.564L120.033 408.93H128.562V401.93ZM149.633 295.975L156.498 297.34L158.162 288.975H149.633V295.975ZM127.057 295.975L120.193 294.602L118.518 302.975H127.057V295.975ZM136.99 246.308V239.308H131.252L130.126 244.936L136.99 246.308ZM159.566 246.308V253.308H165.134L166.387 247.882L159.566 246.308ZM160.469 242.395L167.29 243.969L167.316 243.856L167.338 243.742L160.469 242.395ZM187.861 193.632L183.342 188.285L183.342 188.285L187.861 193.632ZM285.989 183.699L292.129 187.062L295.62 180.688L289.12 177.438L285.989 183.699ZM260.103 230.957L256.769 237.112L262.895 240.43L266.242 234.32L260.103 230.957ZM232.109 231.559L227.159 226.609L227.074 226.695L226.992 226.783L232.109 231.559ZM225.788 246.007L218.94 244.555L218.788 245.273V246.007H225.788ZM462.314 237.278L469.18 238.646L470.847 230.278H462.314V237.278ZM429.505 401.93V408.93H435.247L436.37 403.298L429.505 401.93ZM365.39 401.93L358.526 400.557L356.851 408.93H365.39V401.93ZM368.701 385.374L375.565 386.747L379.87 365.223L363.899 380.281L368.701 385.374ZM345.523 400.124L348.015 406.665L348.015 406.665L345.523 400.124ZM277.495 390.491L272.796 395.68L272.796 395.68L277.495 390.491ZM263.649 328.183L270.513 329.556L270.515 329.547L263.649 328.183ZM281.709 237.278V230.278H275.963L274.844 235.914L281.709 237.278ZM349.737 237.278L356.601 238.651L358.276 230.278H349.737V237.278ZM333.182 320.055L326.318 318.683L326.296 318.793L326.277 318.905L333.182 320.055ZM378.333 316.443L385.195 317.829L385.195 317.826L378.333 316.443ZM394.287 237.278V230.278H388.556L387.425 235.895L394.287 237.278ZM503.927 178.582V171.582H498.185L497.062 177.212L503.927 178.582ZM571.954 178.582L578.819 179.951L580.489 171.582H571.954V178.582ZM527.405 401.93V408.93H533.147L534.27 403.299L527.405 401.93ZM459.377 401.93L452.513 400.561L450.843 408.93H459.377V401.93ZM602.107 178.582V171.582H596.365L595.242 177.212L602.107 178.582ZM670.135 178.582L677 179.951L678.669 171.582H670.135V178.582ZM625.586 401.93V408.93H631.327L632.45 403.299L625.586 401.93ZM557.558 401.93L550.693 400.561L549.024 408.93H557.558V401.93ZM205.721 246.308H198.721V253.308H205.721V246.308ZM241.239 246.308L248.104 247.681L249.778 239.308H241.239V246.308ZM231.306 295.975V302.975H237.045L238.17 297.348L231.306 295.975ZM197.894 295.975V288.975H192.165L191.032 294.591L197.894 295.975ZM176.523 401.93V408.93H182.252L183.384 403.314L176.523 401.93ZM108.495 401.93L101.629 400.564L99.9657 408.93H108.495V401.93ZM129.565 295.975L136.431 297.34L138.094 288.975H129.565V295.975ZM106.99 295.975L100.126 294.602L98.4511 302.975H106.99V295.975ZM116.923 246.308V239.308H111.184L110.059 244.936L116.923 246.308ZM139.499 246.308V253.308H145.067L146.319 247.882L139.499 246.308ZM140.402 242.395L147.222 243.969L147.249 243.856L147.271 243.742L140.402 242.395ZM167.793 193.632L163.275 188.285L163.275 188.285L167.793 193.632ZM265.922 183.699L272.061 187.062L275.553 180.688L269.053 177.438L265.922 183.699ZM240.035 230.957L236.701 237.112L242.828 240.43L246.175 234.32L240.035 230.957ZM212.042 231.559L207.092 226.609L207.007 226.695L206.924 226.783L212.042 231.559ZM205.721 246.007L198.873 244.555L198.721 245.273V246.007H205.721ZM442.247 237.278L449.112 238.646L450.78 230.278H442.247V237.278ZM409.437 401.93V408.93H415.18L416.302 403.298L409.437 401.93ZM345.323 401.93L338.458 400.557L336.784 408.93H345.323V401.93ZM348.634 385.374L355.498 386.747L359.803 365.223L343.832 380.281L348.634 385.374ZM325.456 400.124L327.948 406.665L327.948 406.665L325.456 400.124ZM257.428 390.491L252.729 395.68L252.729 395.68L257.428 390.491ZM243.582 328.183L250.446 329.556L250.448 329.547L243.582 328.183ZM261.642 237.278V230.278H255.896L254.776 235.914L261.642 237.278ZM329.67 237.278L336.534 238.651L338.209 230.278H329.67V237.278ZM313.115 320.055L306.251 318.683L306.228 318.793L306.21 318.905L313.115 320.055ZM358.266 316.443L365.127 317.829L365.128 317.826L358.266 316.443ZM374.219 237.278V230.278H368.489L367.357 235.895L374.219 237.278ZM483.859 178.582V171.582H478.118L476.995 177.212L483.859 178.582ZM551.887 178.582L558.752 179.951L560.421 171.582H551.887V178.582ZM507.338 401.93V408.93H513.08L514.203 403.299L507.338 401.93ZM439.31 401.93L432.445 400.561L430.776 408.93H439.31V401.93ZM582.04 178.582V171.582H576.298L575.175 177.212L582.04 178.582ZM650.068 178.582L656.932 179.951L658.602 171.582H650.068V178.582ZM605.518 401.93V408.93H611.26L612.383 403.299L605.518 401.93ZM537.491 401.93L530.626 400.561L528.956 408.93H537.491V401.93ZM225.788 253.308H261.307V239.308H225.788V253.308ZM254.443 244.936L244.509 294.602L258.238 297.348L268.171 247.681L254.443 244.936ZM251.373 288.975H217.962V302.975H251.373V288.975ZM211.1 294.591L189.728 400.546L203.452 403.314L224.823 297.359L211.1 294.591ZM196.59 394.93H128.562V408.93H196.59V394.93ZM135.428 403.295L156.498 297.34L142.767 294.61L121.696 400.564L135.428 403.295ZM149.633 288.975H127.057V302.975H149.633V288.975ZM133.921 297.348L143.854 247.681L130.126 244.936L120.193 294.602L133.921 297.348ZM136.99 253.308H159.566V239.308H136.99V253.308ZM166.387 247.882L167.29 243.969L153.648 240.821L152.745 244.734L166.387 247.882ZM167.338 243.742C171.084 224.64 179.491 209.87 192.379 198.979L183.342 188.285C167.735 201.475 157.881 219.214 153.6 241.048L167.338 243.742ZM192.379 198.979C205.074 188.25 222.103 182.571 244.149 182.571V168.571C219.64 168.571 199.143 174.933 183.342 188.285L192.379 198.979ZM244.149 182.571C260.535 182.571 273.308 185.184 282.859 189.96L289.12 177.438C276.998 171.377 261.877 168.571 244.149 168.571V182.571ZM279.85 180.336L253.963 227.594L266.242 234.32L292.129 187.062L279.85 180.336ZM263.437 224.802C257.608 221.645 251.347 220.044 244.751 220.044V234.044C248.992 234.044 252.965 235.052 256.769 237.112L263.437 224.802ZM244.751 220.044C238.008 220.044 231.815 221.953 227.159 226.609L237.059 236.509C238.423 235.145 240.658 234.044 244.751 234.044V220.044ZM226.992 226.783C222.922 231.143 220.457 237.406 218.94 244.555L232.635 247.46C233.928 241.365 235.677 237.995 237.226 236.335L226.992 226.783ZM218.788 246.007V246.308H232.788V246.007H218.788ZM455.449 235.91L422.64 400.562L436.37 403.298L469.18 238.646L455.449 235.91ZM429.505 394.93H365.39V408.93H429.505V394.93ZM372.254 403.303L375.565 386.747L361.837 384.002L358.526 400.557L372.254 403.303ZM363.899 380.281C357.495 386.319 350.543 390.721 343.031 393.582L348.015 406.665C357.36 403.105 365.859 397.674 373.503 390.467L363.899 380.281ZM343.031 393.582C335.362 396.504 327.677 397.94 319.938 397.94V411.94C329.456 411.94 338.828 410.165 348.015 406.665L343.031 393.582ZM319.938 397.94C303.596 397.94 291.262 393.516 282.194 385.303L272.796 395.68C284.999 406.732 300.961 411.94 319.938 411.94V397.94ZM282.194 385.303C273.386 377.325 268.542 365.584 268.542 348.952H254.542C254.542 368.442 260.334 384.393 272.796 395.68L282.194 385.303ZM268.542 348.952C268.542 342.613 269.194 336.149 270.513 329.556L256.785 326.81C255.294 334.263 254.542 341.646 254.542 348.952H268.542ZM270.515 329.547L288.575 238.642L274.844 235.914L256.783 326.819L270.515 329.547ZM281.709 244.278H349.737V230.278H281.709V244.278ZM342.873 235.905L326.318 318.683L340.046 321.428L356.601 238.651L342.873 235.905ZM326.277 318.905C325.475 323.716 324.978 327.642 324.978 330.29H338.978C338.978 328.925 339.283 326.028 340.087 321.206L326.277 318.905ZM324.978 330.29C324.978 337.098 326.585 343.505 331.037 348.2C335.555 352.965 341.838 354.748 348.533 354.748V340.748C344.192 340.748 342.196 339.622 341.196 338.567C340.13 337.442 338.978 335.12 338.978 330.29H324.978ZM348.533 354.748C358.092 354.748 366.383 351.482 372.793 344.748C379.005 338.223 382.944 328.977 385.195 317.829L371.472 315.058C369.509 324.78 366.374 331.187 362.652 335.096C359.129 338.797 354.627 340.748 348.533 340.748V354.748ZM385.195 317.826L401.149 238.661L387.425 235.895L371.471 315.061L385.195 317.826ZM394.287 244.278H462.314V230.278H394.287V244.278ZM503.927 185.582H571.954V171.582H503.927V185.582ZM565.09 177.212L520.54 400.561L534.27 403.299L578.819 179.951L565.09 177.212ZM527.405 394.93H459.377V408.93H527.405V394.93ZM466.242 403.299L510.791 179.951L497.062 177.212L452.513 400.561L466.242 403.299ZM602.107 185.582H670.135V171.582H602.107V185.582ZM663.27 177.212L618.721 400.561L632.45 403.299L677 179.951L663.27 177.212ZM625.586 394.93H557.558V408.93H625.586V394.93ZM564.423 403.299L608.972 179.951L595.242 177.212L550.693 400.561L564.423 403.299ZM205.721 253.308H241.239V239.308H205.721V253.308ZM234.375 244.936L224.442 294.602L238.17 297.348L248.104 247.681L234.375 244.936ZM231.306 288.975H197.894V302.975H231.306V288.975ZM191.032 294.591L169.661 400.546L183.384 403.314L204.756 297.359L191.032 294.591ZM176.523 394.93H108.495V408.93H176.523V394.93ZM115.36 403.295L136.431 297.34L122.7 294.61L101.629 400.564L115.36 403.295ZM129.565 288.975H106.99V302.975H129.565V288.975ZM113.854 297.348L123.787 247.681L110.059 244.936L100.126 294.602L113.854 297.348ZM116.923 253.308H139.499V239.308H116.923V253.308ZM146.319 247.882L147.222 243.969L133.581 240.821L132.678 244.734L146.319 247.882ZM147.271 243.742C151.016 224.64 159.423 209.87 172.312 198.979L163.275 188.285C147.668 201.475 137.814 219.214 133.532 241.048L147.271 243.742ZM172.312 198.979C185.007 188.25 202.035 182.571 224.082 182.571V168.571C199.573 168.571 179.076 174.933 163.275 188.285L172.312 198.979ZM224.082 182.571C240.468 182.571 253.241 185.184 262.792 189.96L269.053 177.438C256.931 171.377 241.81 168.571 224.082 168.571V182.571ZM259.783 180.336L233.896 227.594L246.175 234.32L272.061 187.062L259.783 180.336ZM243.369 224.802C237.541 221.645 231.28 220.044 224.684 220.044V234.044C228.925 234.044 232.897 235.052 236.701 237.112L243.369 224.802ZM224.684 220.044C217.941 220.044 211.748 221.953 207.092 226.609L216.991 236.509C218.355 235.145 220.591 234.044 224.684 234.044V220.044ZM206.924 226.783C202.855 231.143 200.389 237.406 198.873 244.555L212.568 247.46C213.861 241.365 215.61 237.995 217.159 236.335L206.924 226.783ZM198.721 246.007V246.308H212.721V246.007H198.721ZM435.382 235.91L402.572 400.562L416.302 403.298L449.112 238.646L435.382 235.91ZM409.437 394.93H345.323V408.93H409.437V394.93ZM352.187 403.303L355.498 386.747L341.77 384.002L338.458 400.557L352.187 403.303ZM343.832 380.281C337.428 386.319 330.476 390.721 322.964 393.582L327.948 406.665C337.293 403.105 345.792 397.674 353.436 390.467L343.832 380.281ZM322.964 393.582C315.295 396.504 307.609 397.94 299.87 397.94V411.94C309.389 411.94 318.76 410.165 327.948 406.665L322.964 393.582ZM299.87 397.94C283.529 397.94 271.195 393.516 262.127 385.303L252.729 395.68C264.932 406.732 280.893 411.94 299.87 411.94V397.94ZM262.127 385.303C253.319 377.325 248.475 365.584 248.475 348.952H234.475C234.475 368.442 240.266 384.393 252.729 395.68L262.127 385.303ZM248.475 348.952C248.475 342.613 249.127 336.149 250.446 329.556L236.718 326.81C235.227 334.263 234.475 341.646 234.475 348.952H248.475ZM250.448 329.547L268.508 238.642L254.776 235.914L236.716 326.819L250.448 329.547ZM261.642 244.278H329.67V230.278H261.642V244.278ZM322.806 235.905L306.251 318.683L319.979 321.428L336.534 238.651L322.806 235.905ZM306.21 318.905C305.408 323.716 304.911 327.642 304.911 330.29H318.911C318.911 328.925 319.216 326.028 320.019 321.206L306.21 318.905ZM304.911 330.29C304.911 337.098 306.518 343.505 310.97 348.2C315.488 352.965 321.771 354.748 328.466 354.748V340.748C324.124 340.748 322.129 339.622 321.129 338.567C320.062 337.442 318.911 335.12 318.911 330.29H304.911ZM328.466 354.748C338.025 354.748 346.316 351.482 352.725 344.748C358.938 338.223 362.876 328.977 365.127 317.829L351.404 315.058C349.441 324.78 346.306 331.187 342.585 335.096C339.062 338.797 334.56 340.748 328.466 340.748V354.748ZM365.128 317.826L381.081 238.661L367.357 235.895L351.404 315.061L365.128 317.826ZM374.219 244.278H442.247V230.278H374.219V244.278ZM483.859 185.582H551.887V171.582H483.859V185.582ZM545.022 177.212L500.473 400.561L514.203 403.299L558.752 179.951L545.022 177.212ZM507.338 394.93H439.31V408.93H507.338V394.93ZM446.175 403.299L490.724 179.951L476.995 177.212L432.445 400.561L446.175 403.299ZM582.04 185.582H650.068V171.582H582.04V185.582ZM643.203 177.212L598.654 400.561L612.383 403.299L656.932 179.951L643.203 177.212ZM605.518 394.93H537.491V408.93H605.518V394.93ZM544.355 403.299L588.905 179.951L575.175 177.212L530.626 400.561L544.355 403.299Z" fill="#212121" mask="url(#path-4-outside-1_19_95)"/>
<mask id="path-6-outside-2_19_95" maskUnits="userSpaceOnUse" x="0" y="334.798" width="783" height="246" fill="black">
<rect fill="white" y="334.798" width="783" height="246"/>
<path d="M132.143 413.535H167.662L157.728 463.202H124.316L102.945 569.156H34.9168L55.9874 463.202H33.4118L43.345 413.535H65.9207L66.8237 409.622C70.8371 389.153 79.9677 372.899 94.2155 360.859C108.463 348.818 127.226 342.798 150.504 342.798C167.561 342.798 181.508 345.507 192.344 350.925L166.457 398.184C161.641 395.575 156.524 394.271 151.106 394.271C145.688 394.271 141.474 395.776 138.464 398.786C135.654 401.796 133.547 406.612 132.143 413.234V413.535ZM200.17 345.808H268.198L223.649 569.156H155.621L200.17 345.808Z"/>
<path d="M350.359 572.167C332.299 572.167 316.546 569.056 303.101 562.835C289.656 556.414 279.221 547.484 271.796 536.046C264.572 524.607 260.96 511.263 260.96 496.011C260.96 478.152 265.375 462.098 274.204 447.85C283.034 433.402 295.175 422.064 310.626 413.836C326.279 405.609 343.938 401.495 363.604 401.495C381.664 401.495 397.417 404.706 410.862 411.127C424.307 417.348 434.642 426.177 441.866 437.616C449.291 449.054 453.003 462.399 453.003 477.65C453.003 495.51 448.589 511.664 439.759 526.112C430.929 540.36 418.688 551.598 403.036 559.825C387.584 568.053 370.025 572.167 350.359 572.167ZM354.273 518.587C363.102 518.587 370.226 515.176 375.644 508.353C381.263 501.53 384.072 492.399 384.072 480.961C384.072 473.135 381.865 466.914 377.45 462.298C373.236 457.482 367.316 455.074 359.691 455.074C350.861 455.074 343.637 458.486 338.018 465.309C332.6 472.131 329.891 481.262 329.891 492.7C329.891 500.527 331.998 506.848 336.212 511.664C340.627 516.279 346.647 518.587 354.273 518.587Z"/>
<path d="M769.102 404.505L680.305 569.156H613.18L601.139 493.001L561.707 569.156H494.883L468.395 404.505H530.402L542.142 490.593L588.798 404.505H647.194L659.234 491.195L705.89 404.505H769.102Z"/>
<path d="M108.731 413.535H144.25L134.316 463.202H100.905L79.5329 569.156H11.505L32.5756 463.202H10L19.9333 413.535H42.5089L43.4119 409.622C47.4254 389.153 56.556 372.899 70.8037 360.859C85.0514 348.818 103.814 342.798 127.092 342.798C144.149 342.798 158.096 345.507 168.932 350.925L143.046 398.184C138.23 395.575 133.112 394.271 127.694 394.271C122.276 394.271 118.062 395.776 115.052 398.786C112.243 401.796 110.135 406.612 108.731 413.234V413.535ZM176.759 345.808H244.787L200.237 569.156H132.209L176.759 345.808Z"/>
<path d="M326.948 572.167C308.887 572.167 293.134 569.056 279.689 562.835C266.244 556.414 255.809 547.484 248.385 536.046C241.16 524.607 237.548 511.263 237.548 496.011C237.548 478.152 241.963 462.098 250.793 447.85C259.622 433.402 271.763 422.064 287.215 413.836C302.867 405.609 320.526 401.495 340.192 401.495C358.253 401.495 374.005 404.706 387.45 411.127C400.895 417.348 411.23 426.177 418.454 437.616C425.879 449.054 429.592 462.399 429.592 477.65C429.592 495.51 425.177 511.664 416.347 526.112C407.518 540.36 395.277 551.598 379.624 559.825C364.172 568.053 346.614 572.167 326.948 572.167ZM330.861 518.587C339.69 518.587 346.814 515.176 352.232 508.353C357.851 501.53 360.661 492.399 360.661 480.961C360.661 473.135 358.453 466.914 354.038 462.298C349.824 457.482 343.905 455.074 336.279 455.074C327.449 455.074 320.225 458.486 314.606 465.309C309.188 472.131 306.479 481.262 306.479 492.7C306.479 500.527 308.586 506.848 312.8 511.664C317.215 516.279 323.235 518.587 330.861 518.587Z"/>
<path d="M745.69 404.505L656.893 569.156H589.768L577.728 493.001L538.296 569.156H471.472L444.983 404.505H506.991L518.73 490.593L565.386 404.505H623.782L635.822 491.195L682.479 404.505H745.69Z"/>
</mask>
<path d="M132.143 413.535H167.662L157.728 463.202H124.316L102.945 569.156H34.9168L55.9874 463.202H33.4118L43.345 413.535H65.9207L66.8237 409.622C70.8371 389.153 79.9677 372.899 94.2155 360.859C108.463 348.818 127.226 342.798 150.504 342.798C167.561 342.798 181.508 345.507 192.344 350.925L166.457 398.184C161.641 395.575 156.524 394.271 151.106 394.271C145.688 394.271 141.474 395.776 138.464 398.786C135.654 401.796 133.547 406.612 132.143 413.234V413.535ZM200.17 345.808H268.198L223.649 569.156H155.621L200.17 345.808Z" fill="#212121"/>
<path d="M350.359 572.167C332.299 572.167 316.546 569.056 303.101 562.835C289.656 556.414 279.221 547.484 271.796 536.046C264.572 524.607 260.96 511.263 260.96 496.011C260.96 478.152 265.375 462.098 274.204 447.85C283.034 433.402 295.175 422.064 310.626 413.836C326.279 405.609 343.938 401.495 363.604 401.495C381.664 401.495 397.417 404.706 410.862 411.127C424.307 417.348 434.642 426.177 441.866 437.616C449.291 449.054 453.003 462.399 453.003 477.65C453.003 495.51 448.589 511.664 439.759 526.112C430.929 540.36 418.688 551.598 403.036 559.825C387.584 568.053 370.025 572.167 350.359 572.167ZM354.273 518.587C363.102 518.587 370.226 515.176 375.644 508.353C381.263 501.53 384.072 492.399 384.072 480.961C384.072 473.135 381.865 466.914 377.45 462.298C373.236 457.482 367.316 455.074 359.691 455.074C350.861 455.074 343.637 458.486 338.018 465.309C332.6 472.131 329.891 481.262 329.891 492.7C329.891 500.527 331.998 506.848 336.212 511.664C340.627 516.279 346.647 518.587 354.273 518.587Z" fill="#212121"/>
<path d="M769.102 404.505L680.305 569.156H613.18L601.139 493.001L561.707 569.156H494.883L468.395 404.505H530.402L542.142 490.593L588.798 404.505H647.194L659.234 491.195L705.89 404.505H769.102Z" fill="#212121"/>
<path d="M108.731 413.535H144.25L134.316 463.202H100.905L79.5329 569.156H11.505L32.5756 463.202H10L19.9333 413.535H42.5089L43.4119 409.622C47.4254 389.153 56.556 372.899 70.8037 360.859C85.0514 348.818 103.814 342.798 127.092 342.798C144.149 342.798 158.096 345.507 168.932 350.925L143.046 398.184C138.23 395.575 133.112 394.271 127.694 394.271C122.276 394.271 118.062 395.776 115.052 398.786C112.243 401.796 110.135 406.612 108.731 413.234V413.535ZM176.759 345.808H244.787L200.237 569.156H132.209L176.759 345.808Z" fill="white"/>
<path d="M326.948 572.167C308.887 572.167 293.134 569.056 279.689 562.835C266.244 556.414 255.809 547.484 248.385 536.046C241.16 524.607 237.548 511.263 237.548 496.011C237.548 478.152 241.963 462.098 250.793 447.85C259.622 433.402 271.763 422.064 287.215 413.836C302.867 405.609 320.526 401.495 340.192 401.495C358.253 401.495 374.005 404.706 387.45 411.127C400.895 417.348 411.23 426.177 418.454 437.616C425.879 449.054 429.592 462.399 429.592 477.65C429.592 495.51 425.177 511.664 416.347 526.112C407.518 540.36 395.277 551.598 379.624 559.825C364.172 568.053 346.614 572.167 326.948 572.167ZM330.861 518.587C339.69 518.587 346.814 515.176 352.232 508.353C357.851 501.53 360.661 492.399 360.661 480.961C360.661 473.135 358.453 466.914 354.038 462.298C349.824 457.482 343.905 455.074 336.279 455.074C327.449 455.074 320.225 458.486 314.606 465.309C309.188 472.131 306.479 481.262 306.479 492.7C306.479 500.527 308.586 506.848 312.8 511.664C317.215 516.279 323.235 518.587 330.861 518.587Z" fill="white"/>
<path d="M745.69 404.505L656.893 569.156H589.768L577.728 493.001L538.296 569.156H471.472L444.983 404.505H506.991L518.73 490.593L565.386 404.505H623.782L635.822 491.195L682.479 404.505H745.69Z" fill="white"/>
<path d="M132.143 413.535H124.143V421.535H132.143V413.535ZM167.662 413.535L175.506 415.104L177.42 405.535H167.662V413.535ZM157.728 463.202V471.202H164.287L165.573 464.77L157.728 463.202ZM124.316 463.202V455.202H117.769L116.474 461.62L124.316 463.202ZM102.945 569.156V577.156H109.492L110.787 570.738L102.945 569.156ZM34.9168 569.156L27.0704 567.596L25.1692 577.156H34.9168V569.156ZM55.9874 463.202L63.8337 464.762L65.735 455.202H55.9874V463.202ZM33.4118 463.202L25.5671 461.633L23.6533 471.202H33.4118V463.202ZM43.345 413.535V405.535H36.7866L35.5004 411.966L43.345 413.535ZM65.9207 413.535V421.535H72.2848L73.7158 415.334L65.9207 413.535ZM66.8237 409.622L74.6188 411.421L74.6487 411.292L74.6742 411.161L66.8237 409.622ZM94.2155 360.859L89.0518 354.748L89.0518 354.748L94.2155 360.859ZM192.344 350.925L199.361 354.769L203.351 347.484L195.922 343.77L192.344 350.925ZM166.457 398.184L162.647 405.218L169.649 409.01L173.474 402.027L166.457 398.184ZM138.464 398.786L132.807 393.129L132.709 393.226L132.615 393.327L138.464 398.786ZM132.143 413.234L124.317 411.574L124.143 412.395V413.234H132.143ZM200.17 345.808V337.808H193.609L192.325 344.243L200.17 345.808ZM268.198 345.808L276.044 347.373L277.952 337.808H268.198V345.808ZM223.649 569.156V577.156H230.211L231.495 570.721L223.649 569.156ZM155.621 569.156L147.776 567.592L145.868 577.156H155.621V569.156ZM303.101 562.835L299.653 570.054L299.697 570.075L299.742 570.096L303.101 562.835ZM271.796 536.046L265.032 540.317L265.059 540.36L265.086 540.401L271.796 536.046ZM274.204 447.85L281.004 452.064L281.018 452.043L281.031 452.022L274.204 447.85ZM310.626 413.836L306.904 406.755L306.885 406.765L306.866 406.775L310.626 413.836ZM410.862 411.127L407.414 418.346L407.458 418.367L407.503 418.388L410.862 411.127ZM441.866 437.616L435.102 441.888L435.129 441.93L435.156 441.972L441.866 437.616ZM439.759 526.112L446.559 530.326L446.572 530.305L446.585 530.284L439.759 526.112ZM403.036 559.825L399.314 552.744L399.295 552.754L399.276 552.764L403.036 559.825ZM375.644 508.353L369.469 503.267L369.424 503.322L369.379 503.378L375.644 508.353ZM377.45 462.298L371.43 467.567L371.546 467.7L371.669 467.828L377.45 462.298ZM338.018 465.309L331.843 460.223L331.797 460.278L331.753 460.334L338.018 465.309ZM336.212 511.664L330.191 516.932L330.308 517.065L330.431 517.194L336.212 511.664ZM769.102 404.505L776.143 408.302L782.506 396.505H769.102V404.505ZM680.305 569.156V577.156H685.079L687.346 572.954L680.305 569.156ZM613.18 569.156L605.278 570.406L606.345 577.156H613.18V569.156ZM601.139 493.001L609.041 491.752L605.237 467.689L594.035 489.323L601.139 493.001ZM561.707 569.156V577.156H566.574L568.811 572.835L561.707 569.156ZM494.883 569.156L486.985 570.427L488.068 577.156H494.883V569.156ZM468.395 404.505V396.505H459.005L460.496 405.776L468.395 404.505ZM530.402 404.505L538.329 403.424L537.386 396.505H530.402V404.505ZM542.142 490.593L534.215 491.674L537.52 515.911L549.175 494.405L542.142 490.593ZM588.798 404.505V396.505H584.034L581.765 400.693L588.798 404.505ZM647.194 404.505L655.118 403.404L654.159 396.505H647.194V404.505ZM659.234 491.195L651.31 492.296L654.678 516.542L666.279 494.987L659.234 491.195ZM705.89 404.505V396.505H701.111L698.846 400.714L705.89 404.505ZM108.731 413.535H100.731V421.535H108.731V413.535ZM144.25 413.535L152.094 415.104L154.008 405.535H144.25V413.535ZM134.316 463.202V471.202H140.875L142.161 464.77L134.316 463.202ZM100.905 463.202V455.202H94.357L93.0625 461.62L100.905 463.202ZM79.5329 569.156V577.156H86.0804L87.375 570.738L79.5329 569.156ZM11.505 569.156L3.65869 567.596L1.75748 577.156H11.505V569.156ZM32.5756 463.202L40.422 464.762L42.3232 455.202H32.5756V463.202ZM10 463.202L2.15535 461.633L0.241569 471.202H10V463.202ZM19.9333 413.535V405.535H13.3748L12.0886 411.966L19.9333 413.535ZM42.5089 413.535V421.535H48.873L50.304 415.334L42.5089 413.535ZM43.4119 409.622L51.2071 411.421L51.2369 411.292L51.2624 411.161L43.4119 409.622ZM70.8037 360.859L65.64 354.748L65.64 354.748L70.8037 360.859ZM168.932 350.925L175.949 354.769L179.939 347.484L172.51 343.77L168.932 350.925ZM143.046 398.184L139.235 405.218L146.237 409.01L150.062 402.027L143.046 398.184ZM115.052 398.786L109.395 393.129L109.298 393.226L109.203 393.327L115.052 398.786ZM108.731 413.234L100.905 411.574L100.731 412.395V413.234H108.731ZM176.759 345.808V337.808H170.197L168.913 344.243L176.759 345.808ZM244.787 345.808L252.632 347.373L254.54 337.808H244.787V345.808ZM200.237 569.156V577.156H206.799L208.083 570.721L200.237 569.156ZM132.209 569.156L124.364 567.592L122.456 577.156H132.209V569.156ZM279.689 562.835L276.242 570.054L276.286 570.075L276.33 570.096L279.689 562.835ZM248.385 536.046L241.621 540.317L241.647 540.36L241.674 540.401L248.385 536.046ZM250.793 447.85L257.593 452.064L257.606 452.043L257.619 452.022L250.793 447.85ZM287.215 413.836L283.492 406.755L283.473 406.765L283.455 406.775L287.215 413.836ZM387.45 411.127L384.003 418.346L384.047 418.367L384.091 418.388L387.45 411.127ZM418.454 437.616L411.69 441.888L411.717 441.93L411.744 441.972L418.454 437.616ZM416.347 526.112L423.147 530.326L423.16 530.305L423.173 530.284L416.347 526.112ZM379.624 559.825L375.902 552.744L375.883 552.754L375.864 552.764L379.624 559.825ZM352.232 508.353L346.057 503.267L346.012 503.322L345.968 503.378L352.232 508.353ZM354.038 462.298L348.018 467.567L348.135 467.7L348.257 467.828L354.038 462.298ZM314.606 465.309L308.431 460.223L308.386 460.278L308.341 460.334L314.606 465.309ZM312.8 511.664L306.78 516.932L306.897 517.065L307.019 517.194L312.8 511.664ZM745.69 404.505L752.732 408.302L759.094 396.505H745.69V404.505ZM656.893 569.156V577.156H661.668L663.934 572.954L656.893 569.156ZM589.768 569.156L581.866 570.406L582.933 577.156H589.768V569.156ZM577.728 493.001L585.63 491.752L581.825 467.689L570.624 489.323L577.728 493.001ZM538.296 569.156V577.156H543.162L545.4 572.835L538.296 569.156ZM471.472 569.156L463.573 570.427L464.656 577.156H471.472V569.156ZM444.983 404.505V396.505H435.593L437.085 405.776L444.983 404.505ZM506.991 404.505L514.917 403.424L513.974 396.505H506.991V404.505ZM518.73 490.593L510.803 491.674L514.108 515.911L525.764 494.405L518.73 490.593ZM565.386 404.505V396.505H560.623L558.353 400.693L565.386 404.505ZM623.782 404.505L631.706 403.404L630.748 396.505H623.782V404.505ZM635.822 491.195L627.898 492.296L631.266 516.542L642.867 494.987L635.822 491.195ZM682.479 404.505V396.505H677.699L675.434 400.714L682.479 404.505ZM132.143 421.535H167.662V405.535H132.143V421.535ZM159.817 411.966L149.884 461.633L165.573 464.77L175.506 415.104L159.817 411.966ZM157.728 455.202H124.316V471.202H157.728V455.202ZM116.474 461.62L95.1026 567.575L110.787 570.738L132.158 464.783L116.474 461.62ZM102.945 561.156H34.9168V577.156H102.945V561.156ZM42.7632 570.717L63.8337 464.762L48.141 461.641L27.0704 567.596L42.7632 570.717ZM55.9874 455.202H33.4118V471.202H55.9874V455.202ZM41.2564 464.77L51.1897 415.104L35.5004 411.966L25.5671 461.633L41.2564 464.77ZM43.345 421.535H65.9207V405.535H43.345V421.535ZM73.7158 415.334L74.6188 411.421L59.0286 407.823L58.1255 411.736L73.7158 415.334ZM74.6742 411.161C78.3815 392.254 86.685 377.696 99.3791 366.969L89.0518 354.748C73.2504 368.102 63.2928 386.053 58.9732 408.083L74.6742 411.161ZM99.3791 366.969C111.852 356.428 128.633 350.798 150.504 350.798V334.798C125.819 334.798 105.074 341.208 89.0518 354.748L99.3791 366.969ZM150.504 350.798C166.794 350.798 179.4 353.397 188.766 358.081L195.922 343.77C183.616 337.617 168.328 334.798 150.504 334.798V350.798ZM185.328 347.082L159.441 394.34L173.474 402.027L199.361 354.769L185.328 347.082ZM170.268 391.149C164.295 387.914 157.87 386.271 151.106 386.271V402.271C155.178 402.271 158.988 403.236 162.647 405.218L170.268 391.149ZM151.106 386.271C144.174 386.271 137.698 388.237 132.807 393.129L144.121 404.443C145.249 403.314 147.202 402.271 151.106 402.271V386.271ZM132.615 393.327C128.366 397.88 125.849 404.35 124.317 411.574L139.968 414.894C141.245 408.874 142.943 405.711 144.312 404.244L132.615 393.327ZM124.143 413.234V413.535H140.143V413.234H124.143ZM200.17 353.808H268.198V337.808H200.17V353.808ZM260.353 344.243L215.804 567.592L231.495 570.721L276.044 347.373L260.353 344.243ZM223.649 561.156H155.621V577.156H223.649V561.156ZM163.467 570.721L208.016 347.373L192.325 344.243L147.776 567.592L163.467 570.721ZM350.359 564.167C333.21 564.167 318.648 561.214 306.46 555.575L299.742 570.096C314.445 576.899 331.388 580.167 350.359 580.167V564.167ZM306.549 555.616C294.307 549.769 285.055 541.778 278.507 531.69L265.086 540.401C273.387 553.19 285.005 563.058 299.653 570.054L306.549 555.616ZM278.56 531.774C272.243 521.772 268.96 509.948 268.96 496.011H252.96C252.96 512.577 256.901 527.443 265.032 540.317L278.56 531.774ZM268.96 496.011C268.96 479.539 273.011 464.962 281.004 452.064L267.404 443.636C257.738 459.233 252.96 476.764 252.96 496.011H268.96ZM281.031 452.022C289.089 438.836 300.152 428.477 314.386 420.897L306.866 406.775C290.197 415.65 276.979 427.968 267.378 443.678L281.031 452.022ZM314.349 420.917C328.729 413.358 345.087 409.495 363.604 409.495V393.495C342.789 393.495 323.829 397.859 306.904 406.755L314.349 420.917ZM363.604 409.495C380.72 409.495 395.25 412.536 407.414 418.346L414.31 403.908C399.584 396.875 382.609 393.495 363.604 393.495V409.495ZM407.503 418.388C419.687 424.025 428.779 431.876 435.102 441.888L448.63 433.344C440.505 420.479 428.927 410.671 414.221 403.867L407.503 418.388ZM435.156 441.972C441.641 451.963 445.003 463.756 445.003 477.65H461.003C461.003 461.042 456.94 446.145 448.576 433.26L435.156 441.972ZM445.003 477.65C445.003 494.122 440.952 508.818 432.933 521.941L446.585 530.284C456.225 514.509 461.003 496.898 461.003 477.65H445.003ZM432.959 521.898C424.923 534.865 413.775 545.142 399.314 552.744L406.758 566.907C423.602 558.053 436.936 545.855 446.559 530.326L432.959 521.898ZM399.276 552.764C385.118 560.302 368.878 564.167 350.359 564.167V580.167C371.173 580.167 390.05 575.803 406.796 566.887L399.276 552.764ZM354.273 526.587C365.504 526.587 374.95 522.092 381.909 513.328L369.379 503.378C365.502 508.26 360.7 510.587 354.273 510.587V526.587ZM381.82 513.438C388.928 504.807 392.072 493.701 392.072 480.961H376.072C376.072 491.098 373.598 498.253 369.469 503.267L381.82 513.438ZM392.072 480.961C392.072 471.565 389.376 463.193 383.231 456.769L371.669 467.828C374.354 470.635 376.072 474.705 376.072 480.961H392.072ZM383.471 457.03C377.445 450.144 369.139 447.074 359.691 447.074V463.074C365.494 463.074 369.027 464.821 371.43 467.567L383.471 457.03ZM359.691 447.074C348.468 447.074 338.979 451.557 331.843 460.223L344.194 470.394C348.295 465.414 353.255 463.074 359.691 463.074V447.074ZM331.753 460.334C324.903 468.96 321.891 480.024 321.891 492.7H337.891C337.891 482.5 340.297 475.303 344.283 470.284L331.753 460.334ZM321.891 492.7C321.891 502.014 324.433 510.351 330.191 516.932L342.233 506.396C339.563 503.345 337.891 499.039 337.891 492.7H321.891ZM330.431 517.194C336.644 523.689 344.921 526.587 354.273 526.587V510.587C348.373 510.587 344.61 508.869 341.993 506.134L330.431 517.194ZM762.061 400.707L673.263 565.359L687.346 572.954L776.143 408.302L762.061 400.707ZM680.305 561.156H613.18V577.156H680.305V561.156ZM621.082 567.907L609.041 491.752L593.238 494.251L605.278 570.406L621.082 567.907ZM594.035 489.323L554.603 565.478L568.811 572.835L608.244 496.68L594.035 489.323ZM561.707 561.156H494.883V577.156H561.707V561.156ZM502.782 567.886L476.293 403.234L460.496 405.776L486.985 570.427L502.782 567.886ZM468.395 412.505H530.402V396.505H468.395V412.505ZM522.476 405.586L534.215 491.674L550.068 489.512L538.329 403.424L522.476 405.586ZM549.175 494.405L595.832 408.317L581.765 400.693L535.108 486.781L549.175 494.405ZM588.798 412.505H647.194V396.505H588.798V412.505ZM639.27 405.605L651.31 492.296L667.158 490.095L655.118 403.404L639.27 405.605ZM666.279 494.987L712.935 408.296L698.846 400.714L652.189 487.404L666.279 494.987ZM705.89 412.505H769.102V396.505H705.89V412.505ZM108.731 421.535H144.25V405.535H108.731V421.535ZM136.405 411.966L126.472 461.633L142.161 464.77L152.094 415.104L136.405 411.966ZM134.316 455.202H100.905V471.202H134.316V455.202ZM93.0625 461.62L71.6909 567.575L87.375 570.738L108.747 464.783L93.0625 461.62ZM79.5329 561.156H11.505V577.156H79.5329V561.156ZM19.3514 570.717L40.422 464.762L24.7293 461.641L3.65869 567.596L19.3514 570.717ZM32.5756 455.202H10V471.202H32.5756V455.202ZM17.8446 464.77L27.7779 415.104L12.0886 411.966L2.15535 461.633L17.8446 464.77ZM19.9333 421.535H42.5089V405.535H19.9333V421.535ZM50.304 415.334L51.2071 411.421L35.6168 407.823L34.7138 411.736L50.304 415.334ZM51.2624 411.161C54.9697 392.254 63.2733 377.696 75.9674 366.969L65.64 354.748C49.8386 368.102 39.881 386.053 35.5614 408.083L51.2624 411.161ZM75.9674 366.969C88.4407 356.428 105.221 350.798 127.092 350.798V334.798C102.407 334.798 81.6622 341.208 65.64 354.748L75.9674 366.969ZM127.092 350.798C143.382 350.798 155.988 353.397 165.355 358.081L172.51 343.77C160.204 337.617 144.916 334.798 127.092 334.798V350.798ZM161.916 347.082L136.029 394.34L150.062 402.027L175.949 354.769L161.916 347.082ZM146.856 391.149C140.883 387.914 134.458 386.271 127.694 386.271V402.271C131.767 402.271 135.576 403.236 139.235 405.218L146.856 391.149ZM127.694 386.271C120.762 386.271 114.287 388.237 109.395 393.129L120.709 404.443C121.838 403.314 123.79 402.271 127.694 402.271V386.271ZM109.203 393.327C104.954 397.88 102.437 404.35 100.905 411.574L116.557 414.894C117.834 408.874 119.531 405.711 120.9 404.244L109.203 393.327ZM100.731 413.234V413.535H116.731V413.234H100.731ZM176.759 353.808H244.787V337.808H176.759V353.808ZM236.941 344.243L192.392 567.592L208.083 570.721L252.632 347.373L236.941 344.243ZM200.237 561.156H132.209V577.156H200.237V561.156ZM140.055 570.721L184.604 347.373L168.913 344.243L124.364 567.592L140.055 570.721ZM326.948 564.167C309.798 564.167 295.236 561.214 283.049 555.575L276.33 570.096C291.033 576.899 307.976 580.167 326.948 580.167V564.167ZM283.137 555.616C270.895 549.769 261.643 541.778 255.095 531.69L241.674 540.401C249.976 553.19 261.593 563.058 276.242 570.054L283.137 555.616ZM255.148 531.774C248.831 521.772 245.548 509.948 245.548 496.011H229.548C229.548 512.577 233.489 527.443 241.621 540.317L255.148 531.774ZM245.548 496.011C245.548 479.539 249.599 464.962 257.593 452.064L243.993 443.636C234.327 459.233 229.548 476.764 229.548 496.011H245.548ZM257.619 452.022C265.677 438.836 276.74 428.477 290.975 420.897L283.455 406.775C266.786 415.65 253.567 427.968 243.966 443.678L257.619 452.022ZM290.937 420.917C305.317 413.358 321.675 409.495 340.192 409.495V393.495C319.377 393.495 300.417 397.859 283.492 406.755L290.937 420.917ZM340.192 409.495C357.308 409.495 371.838 412.536 384.003 418.346L390.898 403.908C376.172 396.875 359.197 393.495 340.192 393.495V409.495ZM384.091 418.388C396.275 424.025 405.367 431.876 411.69 441.888L425.218 433.344C417.093 420.479 405.516 410.671 390.81 403.867L384.091 418.388ZM411.744 441.972C418.23 451.963 421.592 463.756 421.592 477.65H437.592C437.592 461.042 433.529 446.145 425.164 433.26L411.744 441.972ZM421.592 477.65C421.592 494.122 417.54 508.818 409.521 521.941L423.173 530.284C432.813 514.509 437.592 496.898 437.592 477.65H421.592ZM409.547 521.898C401.511 534.865 390.363 545.142 375.902 552.744L383.346 566.907C400.19 558.053 413.524 545.855 423.147 530.326L409.547 521.898ZM375.864 552.764C361.707 560.302 345.466 564.167 326.948 564.167V580.167C347.761 580.167 366.638 575.803 383.384 566.887L375.864 552.764ZM330.861 526.587C342.092 526.587 351.538 522.092 358.497 513.328L345.968 503.378C342.091 508.26 337.288 510.587 330.861 510.587V526.587ZM358.408 513.438C365.516 504.807 368.661 493.701 368.661 480.961H352.661C352.661 491.098 350.186 498.253 346.057 503.267L358.408 513.438ZM368.661 480.961C368.661 471.565 365.965 463.193 359.82 456.769L348.257 467.828C350.942 470.635 352.661 474.705 352.661 480.961H368.661ZM360.059 457.03C354.033 450.144 345.727 447.074 336.279 447.074V463.074C342.082 463.074 345.615 464.821 348.018 467.567L360.059 457.03ZM336.279 447.074C325.056 447.074 315.568 451.557 308.431 460.223L320.782 470.394C324.883 465.414 329.843 463.074 336.279 463.074V447.074ZM308.341 460.334C301.491 468.96 298.479 480.024 298.479 492.7H314.479C314.479 482.5 316.885 475.303 320.871 470.284L308.341 460.334ZM298.479 492.7C298.479 502.014 301.021 510.351 306.78 516.932L318.821 506.396C316.151 503.345 314.479 499.039 314.479 492.7H298.479ZM307.019 517.194C313.232 523.689 321.509 526.587 330.861 526.587V510.587C324.962 510.587 321.198 508.869 318.581 506.134L307.019 517.194ZM738.649 400.707L649.852 565.359L663.934 572.954L752.732 408.302L738.649 400.707ZM656.893 561.156H589.768V577.156H656.893V561.156ZM597.67 567.907L585.63 491.752L569.826 494.251L581.866 570.406L597.67 567.907ZM570.624 489.323L531.191 565.478L545.4 572.835L584.832 496.68L570.624 489.323ZM538.296 561.156H471.472V577.156H538.296V561.156ZM479.37 567.886L452.881 403.234L437.085 405.776L463.573 570.427L479.37 567.886ZM444.983 412.505H506.991V396.505H444.983V412.505ZM499.064 405.586L510.803 491.674L526.657 489.512L514.917 403.424L499.064 405.586ZM525.764 494.405L572.42 408.317L558.353 400.693L511.697 486.781L525.764 494.405ZM565.386 412.505H623.782V396.505H565.386V412.505ZM615.858 405.605L627.898 492.296L643.746 490.095L631.706 403.404L615.858 405.605ZM642.867 494.987L689.523 408.296L675.434 400.714L628.778 487.404L642.867 494.987ZM682.479 412.505H745.69V396.505H682.479V412.505Z" fill="#212121" mask="url(#path-6-outside-2_19_95)"/>
</svg>
