<svg width="100" height="100" viewBox="0 0 100 100" fill="none" xmlns="http://www.w3.org/2000/svg">
<g clip-path="url(#clip0_43_14)">
<path d="M48.5979 5.8541C49.1966 4.01148 51.8034 4.01148 52.4021 5.8541L62.5115 36.9676C62.7792 37.7916 63.5472 38.3496 64.4136 38.3496H97.1283C99.0657 38.3496 99.8713 40.8288 98.3038 41.9676L71.8371 61.1968C71.1362 61.7061 70.8428 62.6088 71.1106 63.4329L81.22 94.5463C81.8187 96.389 79.7097 97.9212 78.1423 96.7824L51.6756 77.5532C50.9746 77.0439 50.0254 77.0439 49.3244 77.5532L22.8577 96.7824C21.2903 97.9212 19.1813 96.389 19.78 94.5463L29.8894 63.4329C30.1572 62.6088 29.8638 61.7061 29.1629 61.1968L2.69616 41.9676C1.12873 40.8288 1.93428 38.3496 3.87173 38.3496H36.5864C37.4528 38.3496 38.2208 37.7916 38.4885 36.9676L48.5979 5.8541Z" fill="#07C2EB"/>
</g>
<defs>
<clipPath id="clip0_43_14">
<rect width="100" height="100" rx="2" fill="white"/>
</clipPath>
</defs>
</svg>
