<svg width="275" height="55" viewBox="0 0 275 55" fill="none" xmlns="http://www.w3.org/2000/svg">
<path d="M26.5489 2.92705C26.8483 2.00574 28.1517 2.00574 28.4511 2.92705L33.4496 18.3111C33.5835 18.7231 33.9674 19.002 34.4007 19.002H50.5764C51.5451 19.002 51.9479 20.2416 51.1642 20.8111L38.0777 30.3189C37.7273 30.5735 37.5806 31.0249 37.7145 31.4369L42.713 46.8209C43.0124 47.7422 41.9579 48.5084 41.1742 47.9389L28.0878 38.4311C27.7373 38.1765 27.2627 38.1765 26.9122 38.4311L13.8258 47.9389C13.0421 48.5084 11.9876 47.7422 12.287 46.8209L17.2855 31.4369C17.4194 31.0249 17.2727 30.5735 16.9223 30.3189L3.83584 20.8111C3.05213 20.2416 3.45491 19.002 4.42363 19.002H20.5993C21.0325 19.002 21.4165 18.7231 21.5504 18.3111L26.5489 2.92705Z" fill="#07C2EB"/>
<path d="M81.5489 2.92705C81.8483 2.00574 83.1517 2.00574 83.4511 2.92705L88.4496 18.3111C88.5835 18.7231 88.9674 19.002 89.4007 19.002H105.576C106.545 19.002 106.948 20.2416 106.164 20.8111L93.0777 30.3189C92.7273 30.5735 92.5806 31.0249 92.7145 31.4369L97.713 46.8209C98.0124 47.7422 96.9579 48.5084 96.1742 47.9389L83.0878 38.4311C82.7373 38.1765 82.2627 38.1765 81.9122 38.4311L68.8258 47.9389C68.0421 48.5084 66.9876 47.7422 67.287 46.8209L72.2855 31.4369C72.4194 31.0249 72.2727 30.5735 71.9223 30.3189L58.8358 20.8111C58.0521 20.2416 58.4549 19.002 59.4236 19.002H75.5993C76.0325 19.002 76.4165 18.7231 76.5504 18.3111L81.5489 2.92705Z" fill="#07C2EB"/>
<path d="M136.549 2.92705C136.848 2.00574 138.152 2.00574 138.451 2.92705L143.45 18.3111C143.583 18.7231 143.967 19.002 144.401 19.002H160.576C161.545 19.002 161.948 20.2416 161.164 20.8111L148.078 30.3189C147.727 30.5735 147.581 31.0249 147.714 31.4369L152.713 46.8209C153.012 47.7422 151.958 48.5084 151.174 47.9389L138.088 38.4311C137.737 38.1765 137.263 38.1765 136.912 38.4311L123.826 47.9389C123.042 48.5084 121.988 47.7422 122.287 46.8209L127.286 31.4369C127.419 31.0249 127.273 30.5735 126.922 30.3189L113.836 20.8111C113.052 20.2416 113.455 19.002 114.424 19.002H130.599C131.033 19.002 131.417 18.7231 131.55 18.3111L136.549 2.92705Z" fill="#07C2EB"/>
<path d="M191.549 2.92705C191.848 2.00574 193.152 2.00574 193.451 2.92705L198.45 18.3111C198.583 18.7231 198.967 19.002 199.401 19.002H215.576C216.545 19.002 216.948 20.2416 216.164 20.8111L203.078 30.3189C202.727 30.5735 202.581 31.0249 202.714 31.4369L207.713 46.8209C208.012 47.7422 206.958 48.5084 206.174 47.9389L193.088 38.4311C192.737 38.1765 192.263 38.1765 191.912 38.4311L178.826 47.9389C178.042 48.5084 176.988 47.7422 177.287 46.8209L182.286 31.4369C182.419 31.0249 182.273 30.5735 181.922 30.3189L168.836 20.8111C168.052 20.2416 168.455 19.002 169.424 19.002H185.599C186.033 19.002 186.417 18.7231 186.55 18.3111L191.549 2.92705Z" fill="#07C2EB"/>
<path d="M246.549 2.92705C246.848 2.00574 248.152 2.00574 248.451 2.92705L253.45 18.3111C253.583 18.7231 253.967 19.002 254.401 19.002H270.576C271.545 19.002 271.948 20.2416 271.164 20.8111L258.078 30.3189C257.727 30.5735 257.581 31.0249 257.714 31.4369L262.713 46.8209C263.012 47.7422 261.958 48.5084 261.174 47.9389L248.088 38.4311C247.737 38.1765 247.263 38.1765 246.912 38.4311L233.826 47.9389C233.042 48.5084 231.988 47.7422 232.287 46.8209L237.286 31.4369C237.419 31.0249 237.273 30.5735 236.922 30.3189L223.836 20.8111C223.052 20.2416 223.455 19.002 224.424 19.002H240.599C241.033 19.002 241.417 18.7231 241.55 18.3111L246.549 2.92705Z" fill="#07C2EB"/>
</svg>
